<svg width="986" height="1539" viewBox="0 0 986 1539" fill="none" xmlns="http://www.w3.org/2000/svg">
<path d="M110.033 1071.76C53.911 1113.84 24.8078 1181.02 29.464 1248.23C-24.1103 1055.28 85.2426 824.121 303.27 698.22C331.454 681.943 365.102 687.454 378.44 710.543C391.067 732.419 380.876 762.257 355.742 779.148C322.182 784.635 289.405 796.04 258.696 813.762C166.411 867.041 114.306 965.165 110.033 1071.76Z" stroke="#F9BD71" stroke-opacity="0.05" stroke-width="31" stroke-miterlimit="10" stroke-linecap="round" stroke-linejoin="round"/>
<path d="M731.728 1440.3C513.717 1566.18 258.872 1545.29 118.603 1402.5C174.445 1440.08 247.14 1448.45 311.616 1420.91C406.042 1470.51 517.096 1474.43 609.389 1421.16C640.074 1403.44 666.334 1380.74 687.842 1354.43C715.068 1341.1 746.008 1347.16 758.651 1369.06C771.965 1392.15 759.913 1424.03 731.728 1440.3Z" stroke="#F9BD71" stroke-opacity="0.05" stroke-width="31" stroke-miterlimit="10" stroke-linecap="round" stroke-linejoin="round"/>
<path d="M687.842 1354.43C666.334 1380.74 640.074 1403.44 609.389 1421.16C517.096 1474.43 406.05 1470.51 311.616 1420.9C319.051 1417.72 326.399 1414.07 333.579 1409.91C336.055 1408.46 338.515 1406.99 340.903 1405.47C432.35 1347.49 462.531 1227.17 407.903 1132.54C353.274 1037.93 233.986 1003.91 138.066 1054.11C135.542 1055.42 133.019 1056.79 130.535 1058.24C123.347 1062.39 116.51 1066.91 110.041 1071.76C114.314 965.162 166.411 867.039 258.712 813.768C289.421 796.045 322.198 784.641 355.758 779.154C486.819 757.718 629.731 826.435 706.826 959.979C783.921 1093.52 771.989 1251.62 687.842 1354.43Z" stroke="#F9BD71" stroke-opacity="0.05" stroke-width="31" stroke-miterlimit="10" stroke-linecap="round" stroke-linejoin="round"/>
<path d="M340.903 1405.48C338.515 1407 336.063 1408.47 333.579 1409.91C326.391 1414.07 319.051 1417.72 311.616 1420.91C247.14 1448.46 174.445 1440.08 118.602 1402.5C93.74 1385.79 72.216 1363.3 56.2188 1335.59C40.2694 1307.93 31.54 1278.07 29.4795 1248.23C24.8233 1181.03 53.9266 1113.84 110.049 1071.77C116.518 1066.93 123.362 1062.4 130.542 1058.25C133.018 1056.8 135.55 1055.42 138.074 1054.12C233.993 1003.92 353.282 1037.94 407.911 1132.55C462.531 1227.18 432.35 1347.5 340.903 1405.48Z" stroke="#F9BD71" stroke-opacity="0.05" stroke-width="31" stroke-miterlimit="10" stroke-linecap="round" stroke-linejoin="round"/>
<path d="M1498.41 1402.5C1358.14 1545.29 1103.3 1566.18 885.286 1440.3C857.101 1424.02 845.05 1392.14 858.363 1369.05C871.014 1347.15 901.954 1341.09 929.173 1354.43C950.681 1380.73 976.941 1403.43 1007.63 1421.15C1099.92 1474.42 1210.96 1470.5 1305.4 1420.9C1369.87 1448.45 1442.56 1440.07 1498.41 1402.5Z" stroke="#F9BD71" stroke-opacity="0.05" stroke-width="31" stroke-miterlimit="10" stroke-linecap="round" stroke-linejoin="round"/>
<path d="M1506.97 1071.76C1500.51 1066.92 1493.66 1062.39 1486.48 1058.24C1484.01 1056.79 1481.47 1055.41 1478.95 1054.11C1383.03 1003.91 1263.74 1037.93 1209.11 1132.54C1154.48 1227.17 1184.67 1347.5 1276.11 1405.47C1278.5 1406.99 1280.95 1408.46 1283.44 1409.91C1290.63 1414.06 1297.96 1417.71 1305.4 1420.9C1210.97 1470.51 1099.92 1474.43 1007.63 1421.16C976.942 1403.44 950.682 1380.74 929.174 1354.43C845.027 1251.63 833.095 1093.52 910.19 959.978C987.293 826.434 1130.2 757.717 1261.26 779.153C1294.82 784.64 1327.6 796.045 1358.3 813.767C1450.6 867.038 1502.7 965.162 1506.97 1071.76Z" stroke="#F9BD71" stroke-opacity="0.05" stroke-width="31" stroke-miterlimit="10" stroke-linecap="round" stroke-linejoin="round"/>
<path d="M715.796 36.5491C655.289 66.1316 611.682 124.913 603.304 194.509C513.119 251.525 454.202 345.728 454.202 452.277C454.202 487.738 460.719 521.801 472.747 553.62C470.702 583.873 449.953 607.609 424.683 607.609C398.032 607.609 376.436 581.238 376.436 548.668C376.436 296.929 521.953 86.6333 715.796 36.5491Z" stroke="#F9BD71" stroke-opacity="0.05" stroke-width="31" stroke-miterlimit="10" stroke-linecap="round" stroke-linejoin="round"/>
<path d="M1233.32 548.66C1233.32 581.23 1211.73 607.602 1185.07 607.602C1159.8 607.602 1139.05 583.866 1137.01 553.612C1149.04 521.801 1155.56 487.738 1155.56 452.27C1155.56 345.72 1096.64 251.518 1006.45 194.501C998.074 124.913 954.467 66.1316 893.961 36.5491C1087.8 86.6334 1233.32 296.93 1233.32 548.66Z" stroke="#F9BD71" stroke-opacity="0.05" stroke-width="31" stroke-miterlimit="10" stroke-linecap="round" stroke-linejoin="round"/>
<path d="M1155.56 452.279C1155.56 487.739 1149.04 521.802 1137.01 553.621C1090.05 677.869 959.101 767.271 804.879 767.271C650.657 767.271 519.708 677.861 472.746 553.613C460.718 521.802 454.201 487.739 454.201 452.271C454.201 345.721 513.119 251.519 603.304 194.502C602.338 202.561 601.834 210.731 601.834 219.037C601.834 221.904 601.906 224.772 602.042 227.599C606.499 335.778 695.598 422.081 804.879 422.081C914.136 422.081 1003.27 335.778 1007.72 227.599C1007.85 224.772 1007.92 221.904 1007.92 219.037C1007.92 210.731 1007.42 202.553 1006.45 194.502C1096.64 251.527 1155.56 345.729 1155.56 452.279Z" stroke="#F9BD71" stroke-opacity="0.05" stroke-width="31" stroke-miterlimit="10" stroke-linecap="round" stroke-linejoin="round"/>
<path d="M1007.92 219.044C1007.92 221.911 1007.85 224.778 1007.72 227.606C1003.26 335.785 914.136 422.088 804.879 422.088C695.598 422.088 606.491 335.785 602.043 227.606C601.907 224.778 601.835 221.911 601.835 219.044C601.835 210.738 602.338 202.56 603.305 194.509C611.683 124.914 655.298 66.1321 715.796 36.5416C742.671 23.3876 772.925 16 804.879 16C836.834 16 867.063 23.3876 893.962 36.5416C954.469 66.1321 998.076 124.914 1006.45 194.509C1007.42 202.568 1007.92 210.738 1007.92 219.044Z" stroke="#F9BD71" stroke-opacity="0.05" stroke-width="31" stroke-miterlimit="10" stroke-linecap="round" stroke-linejoin="round"/>
</svg>
