<svg width="50" height="50" viewBox="0 0 50 50" fill="none" xmlns="http://www.w3.org/2000/svg">
<g clip-path="url(#clip0)">
<path d="M25 0C14.6625 0 6.25 8.47083 6.25 18.8854C6.25 33.6833 23.2375 48.9625 23.9604 49.6042C24.2583 49.8687 24.6292 50 25 50C25.3708 50 25.7417 49.8688 26.0396 49.6063C26.7625 48.9625 43.75 33.6833 43.75 18.8854C43.75 8.47083 35.3375 0 25 0ZM25 29.1667C19.2562 29.1667 14.5833 24.4937 14.5833 18.75C14.5833 13.0062 19.2562 8.33333 25 8.33333C30.7437 8.33333 35.4167 13.0062 35.4167 18.75C35.4167 24.4937 30.7437 29.1667 25 29.1667Z" fill="black"/>
</g>
<defs>
<clipPath id="clip0">
<rect width="50" height="50" fill="white"/>
</clipPath>
</defs>
</svg>
