<svg width="895" height="175" viewBox="0 0 895 175" fill="none" xmlns="http://www.w3.org/2000/svg">
<path d="M12.6586 121.67C6.29718 126.439 2.99835 134.054 3.52613 141.672C-2.54647 119.801 9.84858 93.5996 34.5617 79.3288C37.7565 77.4839 41.5704 78.1085 43.0822 80.7257C44.5134 83.2052 43.3583 86.5873 40.5094 88.502C36.7054 89.1239 32.9902 90.4166 29.5094 92.4255C19.0489 98.4646 13.1429 109.587 12.6586 121.67Z" stroke="#F9BD71" stroke-width="3" stroke-miterlimit="10" stroke-linecap="round" stroke-linejoin="round"/>
<path d="M83.1271 163.443C58.4157 177.711 29.5293 175.343 13.6299 159.158C19.9596 163.417 28.1994 164.367 35.5077 161.245C46.2108 166.867 58.7987 167.312 69.2601 161.274C72.7381 159.265 75.7147 156.692 78.1526 153.71C81.2387 152.198 84.7457 152.885 86.1788 155.367C87.6879 157.985 86.3218 161.599 83.1271 163.443Z" stroke="#F9BD71" stroke-width="3" stroke-miterlimit="10" stroke-linecap="round" stroke-linejoin="round"/>
<path d="M78.1526 153.71C75.7147 156.692 72.7382 159.265 69.2601 161.274C58.7987 167.312 46.2117 166.867 35.5077 161.245C36.3505 160.883 37.1834 160.47 37.9972 159.998C38.2779 159.834 38.5567 159.668 38.8274 159.496C49.1928 152.923 52.6138 139.285 46.4217 128.559C40.2296 117.835 26.7084 113.978 15.836 119.669C15.55 119.817 15.2639 119.973 14.9824 120.137C14.1676 120.608 13.3927 121.12 12.6594 121.67C13.1437 109.587 19.0489 98.4646 29.5112 92.4264C32.992 90.4176 36.7072 89.1248 40.5112 88.5029C55.3668 86.0732 71.5658 93.8622 80.3045 108.999C89.0431 124.136 87.6906 142.056 78.1526 153.71Z" stroke="#F9BD71" stroke-width="3" stroke-miterlimit="10" stroke-linecap="round" stroke-linejoin="round"/>
<path d="M38.8275 159.497C38.5568 159.669 38.2789 159.835 37.9973 159.999C37.1826 160.47 36.3506 160.883 35.5078 161.246C28.1995 164.368 19.9597 163.418 13.63 159.159C10.8118 157.265 8.37213 154.715 6.55886 151.574C4.75102 148.439 3.76155 145.055 3.52799 141.673C3.00022 134.055 6.29905 126.439 12.6604 121.67C13.3937 121.122 14.1695 120.609 14.9834 120.138C15.264 119.974 15.551 119.817 15.837 119.67C26.7094 113.98 40.2306 117.836 46.4227 128.56C52.6139 139.286 49.1929 152.924 38.8275 159.497Z" stroke="#F9BD71" stroke-width="3" stroke-miterlimit="10" stroke-linecap="round" stroke-linejoin="round"/>
<path d="M170.03 159.158C154.131 175.343 125.244 177.711 100.533 163.443C97.3381 161.598 95.9721 157.984 97.4812 155.367C98.9151 152.884 102.422 152.197 105.507 153.709C107.945 156.691 110.922 159.264 114.4 161.273C124.861 167.311 137.448 166.866 148.152 161.244C155.46 164.367 163.699 163.417 170.03 159.158Z" stroke="#F9BD71" stroke-width="3" stroke-miterlimit="10" stroke-linecap="round" stroke-linejoin="round"/>
<path d="M180.132 141.672C180.66 134.054 177.361 126.438 170.999 121.669C170.515 109.587 164.61 98.4645 154.148 92.4263C150.667 90.4175 146.952 89.1248 143.148 88.5028C140.299 86.5882 139.144 83.2061 140.575 80.7265C142.087 78.1094 145.901 77.4847 149.095 79.3297C173.809 93.5996 186.204 119.802 180.132 141.672Z" stroke="#F9BD71" stroke-width="3" stroke-miterlimit="10" stroke-linecap="round" stroke-linejoin="round"/>
<path d="M171 121.669C170.267 121.121 169.491 120.608 168.678 120.137C168.397 119.973 168.11 119.816 167.824 119.669C156.951 113.979 143.43 117.835 137.238 128.559C131.046 139.285 134.467 152.924 144.833 159.496C145.103 159.668 145.381 159.834 145.663 159.998C146.477 160.469 147.309 160.882 148.152 161.245C137.449 166.867 124.861 167.312 114.4 161.274C110.922 159.265 107.945 156.692 105.507 153.71C95.9693 142.057 94.6169 124.136 103.355 108.999C112.095 93.8621 128.293 86.0731 143.149 88.5029C146.953 89.1248 150.668 90.4175 154.149 92.4263C164.61 98.4645 170.516 109.587 171 121.669Z" stroke="#F9BD71" stroke-width="3" stroke-miterlimit="10" stroke-linecap="round" stroke-linejoin="round"/>
<path d="M180.132 141.672C179.898 145.054 178.909 148.439 177.101 151.573C175.288 154.714 172.847 157.263 170.03 159.158C163.7 163.417 155.461 164.367 148.152 161.245C147.309 160.883 146.477 160.47 145.663 159.998C145.382 159.834 145.103 159.668 144.833 159.496C134.467 152.923 131.046 139.285 137.238 128.559C143.43 117.835 156.952 113.978 167.824 119.669C168.11 119.817 168.396 119.973 168.678 120.137C169.492 120.608 170.267 121.12 171.001 121.669C177.361 126.438 180.661 134.054 180.132 141.672Z" stroke="#F9BD71" stroke-width="3" stroke-miterlimit="10" stroke-linecap="round" stroke-linejoin="round"/>
<path d="M81.3211 4.32929C74.4627 7.68244 69.5199 14.3453 68.5703 22.2339C58.3479 28.6966 51.6697 39.3744 51.6697 51.4517C51.6697 55.4711 52.4084 59.3321 53.7717 62.9387C53.54 66.3679 51.1881 69.0584 48.3238 69.0584C45.3028 69.0584 42.855 66.0692 42.855 62.3775C42.855 33.8431 59.3491 10.0063 81.3211 4.32929Z" stroke="#F9BD71" stroke-width="3" stroke-miterlimit="10" stroke-linecap="round" stroke-linejoin="round"/>
<path d="M139.982 62.3766C139.982 66.0683 137.534 69.0575 134.513 69.0575C131.649 69.0575 129.297 66.367 129.066 62.9378C130.429 59.3321 131.168 55.4711 131.168 51.4508C131.168 39.3735 124.489 28.6957 114.267 22.233C113.317 14.3453 108.374 7.68244 101.516 4.32929C123.487 10.0063 139.982 33.8431 139.982 62.3766Z" stroke="#F9BD71" stroke-width="3" stroke-miterlimit="10" stroke-linecap="round" stroke-linejoin="round"/>
<path d="M131.167 51.4517C131.167 55.4711 130.429 59.3321 129.065 62.9387C123.742 77.0221 108.899 87.1558 91.4186 87.1558C73.9377 87.1558 59.0948 77.0212 53.7717 62.9378C52.4084 59.3321 51.6697 55.4711 51.6697 51.4508C51.6697 39.3735 58.3479 28.6957 68.5703 22.2329C68.4608 23.1464 68.4037 24.0725 68.4037 25.014C68.4037 25.3389 68.4119 25.6639 68.4273 25.9844C68.9324 38.2464 79.0317 48.0288 91.4186 48.0288C103.803 48.0288 113.906 38.2464 114.41 25.9844C114.425 25.6639 114.433 25.3389 114.433 25.014C114.433 24.0725 114.376 23.1455 114.267 22.2329C124.489 28.6966 131.167 39.3744 131.167 51.4517Z" stroke="#F9BD71" stroke-width="3" stroke-miterlimit="10" stroke-linecap="round" stroke-linejoin="round"/>
<path d="M114.434 25.0149C114.434 25.3398 114.425 25.6648 114.41 25.9853C113.905 38.2473 103.803 48.0297 91.4187 48.0297C79.0318 48.0297 68.9316 38.2473 68.4273 25.9853C68.412 25.6648 68.4038 25.3398 68.4038 25.0149C68.4038 24.0734 68.4608 23.1464 68.5704 22.2338C69.52 14.3453 74.4637 7.68242 81.3212 4.32837C84.3675 2.83738 87.7967 2 91.4187 2C95.0407 2 98.4672 2.83738 101.516 4.32837C108.375 7.68242 113.317 14.3453 114.267 22.2338C114.376 23.1473 114.434 24.0734 114.434 25.0149Z" stroke="#F9BD71" stroke-width="3" stroke-miterlimit="10" stroke-linecap="round" stroke-linejoin="round"/>
<path d="M230.024 61.6406C234.549 61.7708 239.562 61.8359 245.063 61.8359C250.727 61.8359 255.74 61.7708 260.102 61.6406L260.346 64.1309L253.999 65.9375C253.217 66.1328 252.794 66.6211 252.729 67.4023C252.696 68.5742 252.664 69.8438 252.631 71.2109C252.631 72.5456 252.631 73.9941 252.631 75.5566V102.461C252.631 111.348 253.966 117.5 256.635 120.918C259.305 124.303 263.634 125.996 269.624 125.996C275.515 125.996 279.926 124.206 282.856 120.625C285.818 117.012 287.299 111.169 287.299 103.096V75.5566C287.299 73.9941 287.283 72.5456 287.25 71.2109C287.218 69.8438 287.185 68.5742 287.153 67.4023C287.12 66.6536 286.697 66.1654 285.883 65.9375L279.829 64.2285L279.682 61.6406C284.012 61.7708 287.755 61.8359 290.913 61.8359C293.842 61.8359 297.521 61.7708 301.948 61.6406L302.192 64.1309L295.551 66.0352C294.77 66.263 294.363 66.8001 294.331 67.6465C294.298 68.7533 294.265 69.974 294.233 71.3086C294.233 72.6432 294.233 74.1243 294.233 75.752V100.557C294.233 111.755 291.922 119.795 287.299 124.678C282.709 129.528 276.02 131.953 267.231 131.953C257.237 131.953 249.864 129.642 245.112 125.02C240.359 120.365 237.983 112.926 237.983 102.705V75.752C237.983 74.1243 237.967 72.6432 237.934 71.3086C237.934 69.974 237.918 68.7533 237.885 67.6465C237.853 66.8001 237.462 66.263 236.713 66.0352L230.17 64.1309L230.024 61.6406ZM347.211 126.777C341.808 129.837 336.225 131.367 330.463 131.367C323.334 131.367 317.475 129.3 312.885 125.166C308.295 121.032 306 115.514 306 108.613C306 101.094 308.491 95.0065 313.471 90.3516C318.484 85.6966 324.864 83.3691 332.612 83.3691C337.527 83.3691 342.264 84.2969 346.821 86.1523C345.649 90.7422 344.624 95.5599 343.745 100.605L341.059 101.045L337.299 88.8379C336.42 88.5124 335.232 88.3496 333.735 88.3496C330.024 88.3496 326.98 89.9772 324.604 93.2324C322.228 96.4551 321.04 100.785 321.04 106.221C321.04 112.568 322.537 117.256 325.532 120.283C328.559 123.278 332.856 124.775 338.422 124.775C341.092 124.775 343.891 124.466 346.821 123.848L347.211 126.777ZM390.327 83.3691C395.079 83.3691 398.806 84.6712 401.508 87.2754C404.21 89.847 405.561 93.5091 405.561 98.2617V115.4C405.561 119.469 405.594 122.48 405.659 124.434C405.691 125.312 406.114 125.866 406.928 126.094L412.836 127.803L412.983 130.146C408.328 130.049 403.64 130 398.92 130C394.038 130 389.643 130.049 385.737 130.146L385.542 127.803L390.424 126.338C391.173 126.11 391.58 125.622 391.645 124.873C391.678 124.385 391.694 123.359 391.694 121.797V101.338C391.694 97.334 390.913 94.4694 389.35 92.7441C387.788 90.9863 385.46 90.1074 382.368 90.1074C379.666 90.1074 376.883 90.7259 374.018 91.9629V113.447C374.018 117.516 374.051 121.243 374.116 124.629C374.148 125.508 374.523 126.045 375.239 126.24L380.317 127.803L380.415 130.146C376.378 130.049 371.984 130 367.231 130C362.381 130 357.612 130.049 352.924 130.146L352.68 127.803L358.979 126.094C359.695 125.898 360.069 125.41 360.102 124.629C360.135 122.546 360.151 120.544 360.151 118.623V75.8984C360.151 71.6341 360.086 67.7116 359.956 64.1309L352.778 62.1777L352.485 60.1758C360.623 58.9714 367.719 57.7181 373.774 56.416L374.311 56.8066C374.116 61.2988 374.018 66.084 374.018 71.1621V88.3008C379.519 85.013 384.956 83.3691 390.327 83.3691ZM441.01 61.6406C445.568 61.7708 450.255 61.8359 455.073 61.8359C456.831 61.7708 459.581 61.6732 463.325 61.543C467.068 61.4128 469.64 61.3477 471.04 61.3477C479.275 61.3477 485.476 62.6823 489.643 65.3516C493.842 67.9883 495.942 71.7969 495.942 76.7773C495.942 84.5898 491.319 89.9935 482.075 92.9883C487.446 93.737 491.58 95.6087 494.477 98.6035C497.407 101.598 498.872 105.342 498.872 109.834C498.872 116.344 496.251 121.39 491.01 124.971C485.769 128.519 478.347 130.293 468.745 130.293C466.857 130.293 464.871 130.244 462.788 130.146C460.737 130.049 458.165 130 455.073 130C450.32 130 445.714 130.049 441.254 130.146L441.01 127.705L447.553 125.898C448.367 125.671 448.806 125.166 448.872 124.385C448.904 123.083 448.92 121.634 448.92 120.039C448.953 118.411 448.969 116.621 448.969 114.668V75.752C448.969 74.1243 448.953 72.6432 448.92 71.3086C448.92 69.974 448.904 68.7533 448.872 67.6465C448.839 66.8001 448.448 66.263 447.7 66.0352L441.157 64.1309L441.01 61.6406ZM463.52 96.2109V125.41C465.343 125.703 467.264 125.85 469.282 125.85C473.741 125.85 477.127 124.564 479.438 121.992C481.749 119.388 482.905 115.628 482.905 110.713C482.905 105.798 481.733 102.152 479.389 99.7754C477.045 97.3665 473.253 96.1621 468.012 96.1621C466.482 96.1621 464.985 96.1784 463.52 96.2109ZM463.52 91.8164C465.18 91.849 466.759 91.8652 468.256 91.8652C472.423 91.8652 475.499 90.8724 477.485 88.8867C479.503 86.8685 480.512 83.4668 480.512 78.6816C480.512 74.1895 479.471 70.9668 477.387 69.0137C475.336 67.0605 472.358 66.084 468.452 66.084C467.833 66.084 467.101 66.1165 466.254 66.1816C465.441 66.2142 464.529 66.2956 463.52 66.4258V91.8164ZM533.881 108.271C528.771 108.271 525.125 108.923 522.944 110.225C520.763 111.527 519.672 113.757 519.672 116.914C519.672 119.779 520.437 121.829 521.967 123.066C523.53 124.271 525.369 124.873 527.485 124.873C529.894 124.873 531.993 124.255 533.784 123.018L533.881 108.271ZM510.004 88.1055C516.938 84.9479 523.611 83.3691 530.024 83.3691C535.883 83.3691 540.262 84.6875 543.159 87.3242C546.088 89.9284 547.537 93.6882 547.504 98.6035L547.26 118.916C547.195 120.576 547.228 121.911 547.358 122.92C547.488 123.929 547.781 124.71 548.237 125.264C548.725 125.785 549.425 126.159 550.336 126.387C551.28 126.615 552.631 126.745 554.389 126.777L554.682 129.023C550.125 130.586 546.202 131.367 542.915 131.367C538.487 131.367 535.574 129.626 534.174 126.143C530.04 129.626 525.662 131.367 521.04 131.367C516.515 131.367 512.788 130.244 509.858 127.998C506.928 125.719 505.463 122.529 505.463 118.428C505.463 113.317 507.823 109.574 512.543 107.197C517.296 104.821 524.409 103.633 533.881 103.633L533.93 99.9707C533.963 96.4876 533.116 93.9323 531.391 92.3047C529.698 90.6445 527.045 89.8145 523.432 89.8145C520.079 89.8145 516.059 90.5469 511.372 92.0117L510.004 88.1055ZM635.932 138.398L636.665 141.084C630.024 148.506 624.539 152.217 620.209 152.217C614.741 152.217 609.907 150.589 605.708 147.334C601.508 144.079 598.237 138.903 595.893 131.807C584.988 131.579 576.492 128.356 570.405 122.139C564.35 115.889 561.323 107.376 561.323 96.6016C561.323 85.3385 564.659 76.4355 571.333 69.8926C578.006 63.3171 587.234 60.0293 599.018 60.0293C610.346 60.0293 619.103 63.1055 625.288 69.2578C631.472 75.3776 634.565 83.7435 634.565 94.3555C634.565 104.87 631.7 113.431 625.971 120.039C620.242 126.615 612.657 130.407 603.217 131.416C606.342 137.731 613.194 140.889 623.774 140.889C628.299 140.889 632.351 140.059 635.932 138.398ZM577.729 94.9902C577.729 105.407 579.487 113.382 583.002 118.916C586.518 124.417 591.678 127.168 598.481 127.168C605.187 127.168 610.135 124.661 613.325 119.648C616.547 114.635 618.159 106.758 618.159 96.0156C618.159 85.9245 616.466 78.1771 613.081 72.7734C609.695 67.3372 604.454 64.6191 597.358 64.6191C590.489 64.6191 585.493 67.1419 582.368 72.1875C579.275 77.2005 577.729 84.8014 577.729 94.9902ZM669.624 108.271C664.513 108.271 660.867 108.923 658.686 110.225C656.505 111.527 655.415 113.757 655.415 116.914C655.415 119.779 656.18 121.829 657.709 123.066C659.272 124.271 661.111 124.873 663.227 124.873C665.636 124.873 667.736 124.255 669.526 123.018L669.624 108.271ZM645.747 88.1055C652.68 84.9479 659.353 83.3691 665.766 83.3691C671.625 83.3691 676.004 84.6875 678.901 87.3242C681.831 89.9284 683.279 93.6882 683.247 98.6035L683.002 118.916C682.937 120.576 682.97 121.911 683.1 122.92C683.23 123.929 683.523 124.71 683.979 125.264C684.467 125.785 685.167 126.159 686.079 126.387C687.023 126.615 688.374 126.745 690.131 126.777L690.424 129.023C685.867 130.586 681.944 131.367 678.657 131.367C674.23 131.367 671.316 129.626 669.917 126.143C665.782 129.626 661.404 131.367 656.782 131.367C652.257 131.367 648.53 130.244 645.6 127.998C642.67 125.719 641.206 122.529 641.206 118.428C641.206 113.317 643.566 109.574 648.286 107.197C653.038 104.821 660.151 103.633 669.624 103.633L669.672 99.9707C669.705 96.4876 668.859 93.9323 667.133 92.3047C665.441 90.6445 662.788 89.8145 659.174 89.8145C655.821 89.8145 651.801 90.5469 647.114 92.0117L645.747 88.1055ZM719.086 75.5566V114.18C719.086 117.76 719.119 121.309 719.184 124.824H738.276L744.965 110.957L747.944 110.518L746.723 129.805L746.381 130.146C738.341 130.049 730.48 130 722.797 130H710.688C705.838 130 701.346 130.049 697.211 130.146L696.967 127.705L703.022 125.898C703.836 125.671 704.275 125.166 704.34 124.385C704.373 123.083 704.389 121.634 704.389 120.039C704.422 118.411 704.438 116.621 704.438 114.668V75.752C704.438 74.1243 704.422 72.6432 704.389 71.3086C704.389 69.974 704.373 68.7533 704.34 67.6465C704.308 66.8001 703.917 66.263 703.168 66.0352L697.114 64.1309L696.967 61.6406C701.167 61.7708 706.017 61.8359 711.518 61.8359C717.182 61.8359 722.097 61.7708 726.264 61.6406L726.508 64.1309L720.454 65.9375C719.672 66.1328 719.249 66.6211 719.184 67.4023C719.152 68.5742 719.119 70.2507 719.086 72.4316C719.086 74.5801 719.086 75.6217 719.086 75.5566ZM770.258 106.807C770.258 112.731 771.137 117.549 772.895 121.26C774.685 124.938 777.534 126.777 781.44 126.777C785.086 126.777 787.755 125.15 789.448 121.895C791.173 118.639 792.036 113.805 792.036 107.393C792.036 101.37 791.124 96.6341 789.301 93.1836C787.511 89.7005 784.695 87.959 780.854 87.959C777.273 87.959 774.604 89.5215 772.846 92.6465C771.121 95.7715 770.258 100.492 770.258 106.807ZM807.172 106.416C807.172 113.838 804.698 119.86 799.75 124.482C794.803 129.072 788.357 131.367 780.415 131.367C772.7 131.367 766.547 129.202 761.958 124.873C757.368 120.511 755.073 114.814 755.073 107.783C755.073 100.654 757.482 94.8112 762.299 90.2539C767.117 85.6641 773.627 83.3691 781.831 83.3691C789.611 83.3691 795.779 85.485 800.336 89.7168C804.894 93.916 807.172 99.4824 807.172 106.416ZM890.522 138.398L891.254 141.084C884.614 148.506 879.129 152.217 874.799 152.217C869.331 152.217 864.497 150.589 860.297 147.334C856.098 144.079 852.827 138.903 850.483 131.807C839.578 131.579 831.082 128.356 824.995 122.139C818.94 115.889 815.913 107.376 815.913 96.6016C815.913 85.3385 819.249 76.4355 825.922 69.8926C832.596 63.3171 841.824 60.0293 853.608 60.0293C864.936 60.0293 873.693 63.1055 879.877 69.2578C886.062 75.3776 889.155 83.7435 889.155 94.3555C889.155 104.87 886.29 113.431 880.561 120.039C874.832 126.615 867.247 130.407 857.807 131.416C860.932 137.731 867.784 140.889 878.364 140.889C882.889 140.889 886.941 140.059 890.522 138.398ZM832.319 94.9902C832.319 105.407 834.077 113.382 837.592 118.916C841.108 124.417 846.267 127.168 853.071 127.168C859.777 127.168 864.724 124.661 867.915 119.648C871.137 114.635 872.749 106.758 872.749 96.0156C872.749 85.9245 871.056 78.1771 867.67 72.7734C864.285 67.3372 859.044 64.6191 851.948 64.6191C845.079 64.6191 840.083 67.1419 836.958 72.1875C833.865 77.2005 832.319 84.8014 832.319 94.9902Z" fill="black"/>
</svg>
