<svg width="52" height="52" viewBox="0 0 52 52" fill="none" xmlns="http://www.w3.org/2000/svg">
<g clip-path="url(#clip0)">
<path d="M44.3815 7.61196C34.2264 -2.54012 17.764 -2.53768 7.61196 7.61755C-2.54012 17.7728 -2.53768 34.2351 7.61755 44.3871C17.7728 54.5392 34.235 54.5368 44.3871 44.3815C49.2627 39.5044 52.0011 32.8902 51.9995 25.994C51.9981 19.0989 49.2579 12.4868 44.3815 7.61196ZM39.3756 36.2172C39.3745 36.2184 39.3734 36.2196 39.3722 36.2207V36.2121L38.0548 37.5207C36.3511 39.2459 33.8698 39.9558 31.5114 39.3927C29.1354 38.7567 26.8766 37.7443 24.8208 36.3941C22.9108 35.1734 21.1408 33.7464 19.5428 32.1387C18.0725 30.6791 16.7516 29.0765 15.5994 27.3547C14.3393 25.502 13.3418 23.4837 12.6354 21.3573C11.8257 18.8593 12.4967 16.1182 14.3688 14.2767L15.9114 12.7341C16.3403 12.3032 17.0373 12.3017 17.468 12.7306C17.4691 12.7317 17.4703 12.7328 17.4714 12.7341L22.3421 17.6047C22.7729 18.0336 22.7744 18.7305 22.3455 19.1612C22.3444 19.1624 22.3433 19.1635 22.3421 19.1647L19.4821 22.0247C18.6615 22.8364 18.5583 24.1262 19.2394 25.0581C20.2739 26.4777 21.4186 27.8136 22.6628 29.0534C24.0501 30.4467 25.5582 31.7141 27.1694 32.8408C28.1005 33.4902 29.3627 33.3807 30.1681 32.5808L32.9327 29.7728C33.3616 29.342 34.0585 29.3404 34.4893 29.7693C34.4904 29.7705 34.4915 29.7716 34.4927 29.7728L39.3721 34.6608C39.803 35.0896 39.8045 35.7864 39.3756 36.2172Z" fill="black"/>
</g>
<defs>
<clipPath id="clip0">
<rect width="52" height="52" fill="white"/>
</clipPath>
</defs>
</svg>
